<svg width="631" height="670" viewBox="0 0 631 670" fill="none" xmlns="http://www.w3.org/2000/svg">
<g clip-path="url(#clip0_174_156)">
<path d="M631 670C420.679 670 210.358 670 0 670C0 446.696 0 223.381 0 0C210.309 0 420.654 0 631 0C631 223.307 631 446.648 631 670Z" fill="#FBFDFC"/>
<path d="M260.028 198.433C260.503 197.704 261.286 197.606 261.994 197.389C267.151 195.813 272.253 194.01 277.588 193.18C279.11 191.773 281.206 191.71 282.87 190.633C283.182 190.431 283.376 190.165 283.425 189.775C283.607 188.307 284.531 188.036 285.758 187.906C286.963 187.779 288.134 187.301 289.321 186.977C289.648 186.888 290.034 186.637 290.294 186.74C291.93 187.389 292.424 186.205 293.059 185.014C294.251 182.776 294.493 180.188 295.525 177.888C296.082 176.647 296.546 175.378 297.263 174.21C298.206 172.673 297.971 172.071 296.482 171.092C294.799 169.986 293.05 169.718 291.075 169.977C288.99 170.25 286.856 170.036 284.768 170.502C280.644 171.424 276.422 171.611 272.269 172.405C269.928 172.852 267.674 173.633 265.354 174.135C263.631 174.509 261.761 174.833 260.159 175.809C259.717 176.078 259.275 176.133 258.796 176.188C257.228 176.369 255.723 176.815 254.276 177.484C251.528 178.755 248.631 179.605 245.854 180.761C244.001 181.534 242.097 182.234 240.287 183.208C238.491 184.174 236.467 184.738 234.669 185.75C232.287 187.09 229.822 188.231 227.5 189.749C225.44 191.095 223.315 192.408 221.251 193.763C216.865 196.641 212.563 199.66 208.517 203.093C204.752 206.287 201.233 209.776 197.507 213C195.835 214.445 194.707 216.367 193.08 217.772C190.465 220.029 188.265 222.763 186.357 225.588C184.288 228.651 181.492 231.008 179.67 234.335C178.557 236.368 177.046 238.307 175.726 240.277C173.69 243.318 171.714 246.433 170.006 249.716C169.616 250.465 168.965 251.061 168.572 251.81C167.361 254.117 166.178 256.443 165.057 258.8C163.688 261.678 162.242 264.531 161.106 267.514C160.024 270.355 158.207 272.92 157.952 276.077C157.746 278.621 156.89 280.997 156.493 283.484C156.321 284.568 155.773 285.495 155.539 286.568C155.297 287.678 154.849 288.722 154.768 289.91C154.703 290.864 154.141 291.685 153.303 292.156C152.491 292.614 152.365 293.185 152.608 294.129C152.97 295.538 152.888 296.98 152.434 298.406C151.933 299.98 151.974 301.796 151.447 303.237C150.222 306.586 151.212 310.126 150.121 313.475C149.571 315.164 149.347 317.139 149.503 319.042C149.647 320.793 149.608 322.608 149.023 324.197C147.485 328.378 148.263 332.565 148.623 336.769C148.661 337.215 148.599 337.624 148.483 338.049C148.371 338.46 148.221 338.934 148.312 339.321C149.024 342.335 148.542 345.395 148.68 348.428C148.709 349.08 148.696 349.721 148.926 350.356C149.422 351.724 149.8 353.106 149.192 354.577C149.07 354.873 149.091 355.337 149.223 355.635C150.01 357.418 149.945 359.306 149.917 361.193C149.897 362.6 150.614 363.813 150.784 365.199C151.196 368.555 151.629 371.93 152.627 375.161C153.514 378.034 153.825 381.111 154.94 383.853C155.969 386.384 156.233 389.139 157.387 391.591C157.536 391.908 157.643 392.255 157.723 392.601C158.83 397.374 160.878 401.735 162.797 406.173C164.094 409.172 165.488 412.141 167.013 414.973C168.586 417.896 170.225 420.822 171.98 423.658C174.175 427.206 176.711 430.514 178.614 434.269C179.396 435.813 180.747 436.879 181.73 438.279C186.234 444.696 191.732 450.151 196.947 455.888C200.027 459.276 203.657 461.964 206.785 465.277C207.608 466.148 208.896 466.532 209.688 467.575C209.996 467.979 210.311 468.348 210.306 468.902C207.079 466.816 204.251 464.17 201.402 461.577C184.636 446.322 171.619 428.002 161.937 406.962C156.475 395.091 152.444 382.702 149.808 369.793C146.916 355.636 146.027 341.314 146.716 326.871C147.429 311.912 149.912 297.29 154.452 283.098C162.89 256.72 176.109 233.494 195.029 214.051C204.924 203.884 215.927 195.299 227.953 188.206C240.546 180.778 253.939 175.584 267.989 172.244C273.674 170.892 279.427 170.025 285.199 169.249C286.836 169.029 288.47 169.136 290.106 169.232C290.678 168.607 291.296 168.674 291.937 169.093C293.09 168.029 294.475 168.511 295.777 168.443C295.907 168.511 296.035 168.506 296.16 168.429C299.151 168.046 302.163 168.188 305.162 168.002C305.93 167.955 306.324 168.254 306.303 169.104C306.289 169.684 306.316 170.265 306.317 170.846C306.326 176.941 306.319 183.038 306.349 189.133C306.358 190.959 306.567 191.017 304.579 191.045C295.611 191.17 286.703 192.025 277.864 193.627C272.266 194.641 266.796 196.213 261.401 198.082C260.952 198.235 260.534 198.527 260.028 198.433Z" fill="#3E4D39"/>
<path d="M357.75 468.823C357.801 469.466 357.435 469.694 356.918 469.851C353.2 470.98 349.67 472.675 345.988 473.935C341.642 475.423 337.189 476.487 332.751 477.425C328.781 478.264 324.725 478.87 320.692 479.473C312.988 480.625 305.282 480.191 297.581 480.151C295.058 480.138 292.391 480.198 289.929 479.131C289.681 479.024 289.371 478.9 289.136 478.967C285.687 479.952 282.5 477.908 279.124 477.991C278.481 478.007 277.824 477.588 277.182 477.344C276.797 477.198 276.404 476.809 276.056 476.859C273.452 477.231 271.269 475.252 268.71 475.424C268.453 475.441 268.123 475.378 267.934 475.213C266.436 473.908 264.488 473.97 262.786 473.287C260.705 472.452 258.577 471.774 256.512 470.855C254.27 469.857 251.905 469.161 249.687 468.069C247.664 467.072 245.539 466.282 243.709 464.891C242.693 464.118 241.498 463.776 240.409 463.179C236.914 461.266 233.625 458.991 230.257 456.853C227.33 454.994 224.816 452.496 221.933 450.649C218.908 448.711 216.534 446.017 213.772 443.793C210.701 441.32 207.533 438.878 205.069 435.637C205.026 435.581 204.961 435.542 204.927 435.481C202.497 431.15 198.606 428.142 195.831 424.114C193.147 420.219 190.377 416.387 187.967 412.294C185.804 408.617 183.65 404.919 181.752 401.085C179.89 397.325 178.211 393.442 176.744 389.491C176.059 387.646 175.067 385.848 174.965 383.778C174.943 383.314 174.718 382.961 174.469 382.608C173.913 381.822 173.854 380.902 173.703 379.959C173.376 377.91 173.042 375.844 172.348 373.881C171.941 372.728 171.374 371.755 171.537 370.299C171.669 369.116 170.821 367.786 170.767 366.382C170.682 364.227 169.761 362.233 169.518 360.065C169.382 358.846 168.511 357.73 169.076 356.365C169.156 356.171 168.997 355.767 168.832 355.571C168.007 354.593 168.036 353.531 168.371 352.356C168.503 351.895 168.513 351.301 168.222 350.873C167.185 349.35 167.59 347.683 167.738 346.044C167.913 344.102 167.758 342.193 167.099 340.379C166.883 339.785 166.73 339.295 167.049 338.752C167.625 337.767 167.649 336.68 167.576 335.589C167.287 331.229 167.893 326.903 168.069 322.565C168.226 318.695 168.767 314.828 169.536 311.009C170.272 307.353 171.1 303.719 171.83 300.066C172.267 297.878 172.789 295.691 173.434 293.609C174.223 291.062 174.255 288.117 176.287 286.085C175.076 290.396 173.747 294.675 172.675 299.025C168.972 314.051 167.55 329.332 168.507 344.836C170.081 370.364 177.789 393.669 191.13 414.926C197.55 425.154 205.21 434.238 213.822 442.395C231.389 459.037 251.682 470.195 274.667 475.642C288.511 478.923 302.528 479.96 316.705 478.658C329.19 477.512 341.298 474.662 353.123 470.342C354.651 469.783 356.075 468.875 357.75 468.823Z" fill="#3E4D39"/>
<path d="M225.356 479.425C225.832 479.437 226.462 479.245 226.759 479.496C228.643 481.098 231.214 481.361 232.979 483.157C233.385 483.57 233.866 483.992 234.38 484.012C235.991 484.076 237.173 485.091 238.43 485.918C239.389 486.548 240.506 486.597 241.5 487.051C243.653 488.034 245.613 489.522 248.044 489.783C248.502 489.832 249.01 490.025 249.372 490.322C251.974 492.461 255.274 492.777 258.201 494.051C260.024 494.844 262.167 495.079 264.088 495.764C267.982 497.154 272.037 497.446 276.024 498.217C278.491 498.694 280.969 499.142 283.433 499.657C283.566 499.684 283.695 499.796 283.821 499.788C287.386 499.591 290.866 500.578 294.392 500.698C299.864 500.885 305.345 500.742 310.823 500.753C311.978 500.755 313.139 500.633 314.27 501.098C315.603 501.645 316.696 500.727 317.7 500.11C318.739 499.471 319.784 499.248 320.829 499.496C322.096 499.799 323.249 499.468 324.437 499.245C326.109 498.933 327.762 498.482 329.442 498.253C330.419 498.119 331.371 498.541 332.444 498.383C334.626 498.062 336.509 496.851 338.669 496.471C341.407 495.99 344.132 495.362 346.851 494.734C347.868 494.499 348.705 493.908 349.715 493.73C353.132 493.128 356.316 491.666 359.596 490.563C360.743 490.177 361.712 489.278 362.96 489.071C363.81 488.93 364.599 488.297 365.522 488.856C365.822 489.038 366.287 488.943 366.447 488.611C367.42 486.584 368.994 486.796 370.655 487.268C366.322 489.604 361.816 491.513 357.218 493.143C343.916 497.857 330.27 500.84 316.273 501.862C293.569 503.52 271.468 500.541 250.123 491.934C242.183 488.732 234.405 485.157 227.045 480.621C226.461 480.261 225.794 480.021 225.356 479.425Z" fill="#3E4D39"/>
<path d="M462.12 329.669C463.191 330.181 463.45 331.071 463.405 332.271C463.321 334.511 463.382 336.758 463.378 339.002C463.377 339.436 463.364 339.87 463.343 340.303C463.329 340.618 463.183 340.867 462.891 340.942C462.602 341.017 462.306 340.903 462.256 340.582C462.025 339.108 461.448 339.472 460.424 339.89C458.984 340.477 457.454 340.603 456.063 339.266C454.957 338.203 453.806 337.243 452.928 335.921C452.177 334.79 451.152 333.953 449.736 333.839C448.117 333.709 446.553 333.173 444.902 333.209C442.606 333.26 442.06 332.291 442.835 329.757C444.204 329.558 445.574 329.551 446.945 329.732C447.771 329.74 448.596 329.757 449.421 329.715C453.653 329.492 457.886 329.451 462.12 329.669Z" fill="#3E4D39"/>
<path d="M210.913 469.4C211.877 469.454 212.772 469.626 213.398 470.556C213.806 471.162 214.546 471.293 215.105 471.69C218.115 473.826 221.047 476.091 224.254 477.903C224.74 478.178 225.072 478.658 225.098 479.297C220.044 476.525 215.295 473.26 210.913 469.4Z" fill="#08764C"/>
<path d="M370.945 487.151C372.442 485.489 373.875 483.743 375.979 482.886C376.292 482.758 376.675 482.656 376.874 482.407C378.018 480.965 379.265 481.144 380.59 482.049C377.534 484.086 374.305 485.759 370.945 487.151Z" fill="#3E4D39"/>
<path d="M392.369 474.7C393.502 471.335 395.801 469.435 398.988 468.435C399.193 469.358 398.335 469.598 398.501 470.245L398.509 470.232C398.321 470.308 398.222 470.506 398.056 470.613C396.289 472.177 394.411 473.567 392.369 474.7Z" fill="#3E4D39"/>
<path d="M468.308 158.739C467.655 160.13 466.265 159.51 465.257 159.938C464.144 160.41 463.055 159.938 462.307 158.832C462.156 158.609 461.925 158.448 461.73 158.26C462.243 157.928 462.796 157.814 463.389 157.91C463.535 158.03 463.668 158.016 463.789 157.868C465.41 157.486 466.952 157.569 468.308 158.739Z" fill="#424A37"/>
<path d="M381.255 481.669C381.558 479.074 383.101 478.16 385.789 478.983C384.403 480.116 382.885 480.999 381.255 481.669Z" fill="#3E4D39"/>
<path d="M252.208 201.5C253.553 200.368 255.196 199.905 256.78 199.401C257.549 199.156 258.187 198.135 259.164 198.769C256.906 199.855 254.575 200.729 252.208 201.5Z" fill="#08764C"/>
<path d="M177.531 282.492C177.2 280.703 177.997 279.415 179.183 278.3C178.809 279.776 178.323 281.202 177.531 282.492Z" fill="#3E4D39"/>
<path d="M360.672 467.32C360.035 468.579 359.034 469.046 357.727 468.848C358.491 467.868 359.607 467.65 360.672 467.32Z" fill="#08764C"/>
<path d="M248.891 203.033C249.725 202.007 250.855 201.69 252.057 201.544C251.117 202.319 250.016 202.705 248.891 203.033Z" fill="#08764C"/>
<path d="M176.294 285.977C176.229 284.656 176.303 283.392 177.523 282.599C177.285 283.795 176.968 284.959 176.294 285.977Z" fill="#3E4D39"/>
<path d="M179.971 276.349C179.821 275.114 179.872 273.98 181.24 273.511C180.971 274.534 180.641 275.527 179.971 276.349Z" fill="#3E4D39"/>
<path d="M449.421 329.715C448.599 330.396 447.774 330.39 446.945 329.732C447.769 329.517 448.594 329.5 449.421 329.715Z" fill="#3E4D39"/>
<path d="M291.938 169.092C291.328 169.138 290.717 169.184 290.106 169.231C290.691 168.795 291.291 168.603 291.938 169.092Z" fill="#3E4D39"/>
<path d="M182.44 270.928C182.358 269.918 182.181 268.855 183.563 268.663C183.338 269.502 183.032 270.295 182.44 270.928Z" fill="#3E4D39"/>
<path d="M387.377 478.036C387.501 476.617 388.503 476.765 389.414 476.75C388.855 477.395 388.147 477.77 387.377 478.036Z" fill="#3E4D39"/>
<path d="M183.661 268.432C183.57 267.525 183.584 266.681 184.687 266.483C184.473 267.209 184.215 267.908 183.661 268.432Z" fill="#3E4D39"/>
<path d="M246.476 204.139C246.979 203.321 247.797 203.27 248.59 203.157C247.965 203.678 247.262 204.009 246.476 204.139Z" fill="#08764C"/>
<path d="M440.593 357.154C441.626 357.93 440.782 358.42 440.346 358.972C440.301 358.346 440.318 357.73 440.593 357.154Z" fill="#424A37"/>
<path d="M179.156 278.344C179.015 277.544 179.141 276.87 179.927 276.509C179.87 277.215 179.624 277.833 179.156 278.344Z" fill="#3E4D39"/>
<path d="M459.274 159.14C459.127 160.059 458.752 160.32 458.044 159.622C458.433 159.401 458.729 158.913 459.274 159.14Z" fill="#424A37"/>
<path d="M185.709 264.455C185.631 263.766 185.878 263.273 186.489 263.001C186.411 263.595 186.175 264.095 185.709 264.455Z" fill="#3E4D39"/>
<path d="M389.876 476.431C390.058 475.679 390.547 475.43 391.23 475.499C390.894 475.998 390.433 476.293 389.876 476.431Z" fill="#3E4D39"/>
<path d="M236.562 209.513C236.712 209.031 237.048 208.89 237.49 208.945C237.302 209.359 236.929 209.432 236.562 209.513Z" fill="#08764C"/>
<path d="M391.487 475.334C391.559 474.742 391.893 474.555 392.415 474.664C392.211 475.053 391.882 475.244 391.487 475.334Z" fill="#3E4D39"/>
<path d="M440.324 359.182C440.316 359.855 440.588 360.584 439.985 361.141C439.941 360.457 439.904 359.775 440.324 359.182Z" fill="#424A37"/>
<path d="M231.267 212.84C231.553 212.332 232.071 212.203 232.524 211.965C232.233 212.465 231.793 212.721 231.267 212.84Z" fill="#08764C"/>
<path d="M235.373 210.208C235.522 209.784 235.906 209.809 236.224 209.708C236.039 210.066 235.734 210.191 235.373 210.208Z" fill="#08764C"/>
<path d="M233.314 211.499C233.429 211.169 233.689 211.096 233.979 211.078C233.902 211.477 233.591 211.457 233.314 211.499Z" fill="#08764C"/>
<path d="M232.507 211.98C232.661 211.615 232.964 211.532 233.298 211.508C233.133 211.852 232.848 211.968 232.507 211.98Z" fill="#08764C"/>
<path d="M184.854 266.085C184.858 265.698 184.921 265.347 185.326 265.201C185.301 265.575 185.171 265.886 184.854 266.085Z" fill="#3E4D39"/>
<path d="M182.023 271.796C181.982 271.388 182.031 271.028 182.469 270.883C182.458 271.263 182.371 271.601 182.023 271.796Z" fill="#3E4D39"/>
<path d="M181.619 272.673C181.57 272.264 181.617 271.905 182.051 271.751C182.036 272.127 181.964 272.472 181.619 272.673Z" fill="#3E4D39"/>
<path d="M181.212 273.551C181.161 273.139 181.205 272.778 181.648 272.629C181.637 273.008 181.553 273.348 181.212 273.551Z" fill="#3E4D39"/>
<path d="M186.49 262.998C186.498 262.628 186.576 262.298 186.94 262.138C186.929 262.507 186.814 262.814 186.49 262.998Z" fill="#3E4D39"/>
<path d="M230.475 213.354C230.591 212.917 230.917 212.845 231.277 212.833C231.114 213.187 230.821 213.316 230.475 213.354Z" fill="#08764C"/>
<path d="M186.924 262.164C186.912 261.77 186.971 261.418 187.393 261.285C187.373 261.659 187.266 261.982 186.924 262.164Z" fill="#3E4D39"/>
<path d="M188.152 259.978C188.147 259.579 188.211 259.224 188.655 259.122C188.62 259.495 188.499 259.811 188.152 259.978Z" fill="#3E4D39"/>
<path d="M412.937 457.704C412.961 457.273 413.241 457.149 413.582 457.098C413.477 457.432 413.262 457.635 412.937 457.704Z" fill="#0A794E"/>
<path d="M229.254 214.247C229.355 213.816 229.666 213.72 230.025 213.698C229.873 214.048 229.599 214.203 229.254 214.247Z" fill="#08764C"/>
<path d="M244.807 205.014C244.989 204.618 245.322 204.55 245.688 204.554C245.486 204.906 245.17 205.012 244.807 205.014Z" fill="#08764C"/>
<path d="M237.448 208.971C237.589 208.544 237.921 208.481 238.284 208.477C238.1 208.822 237.801 208.947 237.448 208.971Z" fill="#08764C"/>
<path d="M234.563 210.693C234.715 210.31 235.025 210.225 235.371 210.209C235.201 210.556 234.909 210.676 234.563 210.693Z" fill="#08764C"/>
<path d="M385.757 479.003C385.902 478.579 386.231 478.518 386.594 478.525C386.414 478.881 386.108 478.986 385.757 479.003Z" fill="#3E4D39"/>
<path d="M189.003 258.475C189.022 258.163 189.143 257.92 189.415 257.777C189.396 258.088 189.282 258.337 189.003 258.475Z" fill="#3E4D39"/>
<path d="M241.533 206.701C241.695 206.455 241.925 206.35 242.198 206.333C242.054 206.612 241.821 206.713 241.533 206.701Z" fill="#08764C"/>
<path d="M425.228 444.266C425.271 443.943 425.432 443.73 425.735 443.647C425.661 443.941 425.494 444.149 425.228 444.266Z" fill="#0A794E"/>
<path d="M423.952 445.802C424.078 445.65 424.205 445.498 424.331 445.345C424.314 445.599 424.187 445.751 423.952 445.802Z" fill="#0A794E"/>
<path d="M187.354 261.336C187.463 261.164 187.573 260.99 187.683 260.817C187.691 261.075 187.596 261.258 187.354 261.336Z" fill="#3E4D39"/>
<path d="M412.485 458.135C412.542 457.848 412.703 457.679 412.981 457.646C412.917 457.924 412.74 458.073 412.485 458.135Z" fill="#0A794E"/>
<path d="M242.353 206.28C242.512 206.028 242.743 205.917 243.02 205.896C242.878 206.179 242.642 206.282 242.353 206.28Z" fill="#08764C"/>
<path d="M189.388 257.818C189.503 257.653 189.618 257.487 189.732 257.321C189.74 257.582 189.627 257.749 189.388 257.818Z" fill="#3E4D39"/>
<path d="M243.175 205.843C243.333 205.591 243.563 205.48 243.839 205.457C243.698 205.741 243.463 205.843 243.175 205.843Z" fill="#08764C"/>
<path d="M296.161 168.428C296.039 168.621 295.912 168.634 295.778 168.442C295.902 168.342 296.03 168.337 296.161 168.428Z" fill="#424A37"/>
<path d="M239.073 208.032C239.232 207.772 239.466 207.662 239.749 207.648C239.61 207.946 239.366 208.038 239.073 208.032Z" fill="#08764C"/>
<path d="M228.802 214.564C228.907 214.343 229.075 214.219 229.308 214.194C229.233 214.461 229.049 214.561 228.802 214.564Z" fill="#08764C"/>
<path d="M398.055 470.612C398.206 470.486 398.358 470.359 398.509 470.231C398.452 470.484 398.298 470.608 398.055 470.612Z" fill="#0A794E"/>
<path d="M463.789 157.868C463.676 158.101 463.545 158.14 463.389 157.91C463.522 157.896 463.656 157.882 463.789 157.868Z" fill="#424A37"/>
<path d="M239.884 207.607C240.042 207.347 240.274 207.228 240.558 207.204C240.419 207.499 240.179 207.606 239.884 207.607Z" fill="#08764C"/>
<path d="M187.764 260.634C187.791 260.336 187.909 260.098 188.165 259.953C188.148 260.257 188.032 260.496 187.764 260.634Z" fill="#3E4D39"/>
<path d="M386.569 478.54C386.708 478.267 386.934 478.141 387.216 478.113C387.085 478.4 386.859 478.524 386.569 478.54Z" fill="#3E4D39"/>
<path d="M243.995 205.413C244.162 205.155 244.4 205.045 244.688 205.037C244.543 205.34 244.291 205.423 243.995 205.413Z" fill="#08764C"/>
<path d="M188.605 259.18C188.621 258.926 188.739 258.744 188.95 258.627C188.954 258.895 188.859 259.093 188.605 259.18Z" fill="#3E4D39"/>
<path d="M230.032 213.693C230.196 213.565 230.36 213.436 230.524 213.307C230.455 213.572 230.28 213.685 230.032 213.693Z" fill="#08764C"/>
<path d="M411.64 458.935C411.721 458.679 411.886 458.525 412.134 458.469C412.063 458.737 411.898 458.891 411.64 458.935Z" fill="#0A794E"/>
<path d="M383.118 240.198C383.068 240.318 383.044 240.504 382.963 240.539C382.882 240.573 382.744 240.455 382.631 240.403C382.68 240.284 382.704 240.096 382.785 240.063C382.866 240.029 383.004 240.146 383.118 240.198Z" fill="#424A37"/>
<path d="M418.187 201.834C418.189 202.123 418.2 202.412 418.187 202.7C418.111 204.394 417.927 204.526 416.439 203.859C415.747 203.549 414.702 203.818 414.531 202.605C414.371 201.465 415.25 200.978 415.818 200.297C415.997 200.082 416.19 199.868 416.41 199.704C417.397 198.968 418.085 199.29 418.18 200.535C418.213 200.966 418.186 201.401 418.187 201.834Z" fill="#424A37"/>
<path d="M457.218 160.037C457.515 159.948 457.648 159.488 458.044 159.622C458.618 159.932 458.924 159.476 459.274 159.14C459.937 158.356 461.028 158.92 461.73 158.259C463.829 159.86 466.068 159.305 468.307 158.739C469.809 159.307 470.723 160.608 471.609 161.875C475.454 167.378 478.682 173.276 481.389 179.491C482.02 180.939 482.511 182.452 482.833 184.023C483.682 188.161 482.792 191.667 479.524 194.287C477.449 195.951 475.306 197.519 473.239 199.194C457.154 212.23 442.245 226.654 428.203 242.112C411.17 260.863 395.365 280.727 380.328 301.296C368.784 317.088 357.824 333.325 347.181 349.814C337.276 365.159 327.72 380.747 318.162 396.334C315.026 401.448 311.855 406.538 308.699 411.639C308.02 412.737 307.255 413.758 306.333 414.64C303.579 417.274 300.331 417.469 297.349 415.174C296.065 414.187 294.999 412.954 293.916 411.741C286.996 403.984 280.181 396.119 273.134 388.494C259.612 373.862 245.878 359.458 230.693 346.724C227.092 343.705 223.355 340.887 219.568 338.14C218.778 337.566 217.979 336.996 217.247 336.344C214.11 333.548 213.478 329.807 215.462 325.986C216.094 324.77 216.898 323.682 217.763 322.65C223.429 315.902 229.657 309.799 236.452 304.354C237.71 303.347 239.047 302.465 240.496 301.787C243.032 300.599 245.542 300.622 248.018 301.974C250.157 303.142 252.098 304.629 254.007 306.172C263.35 313.722 271.682 322.453 279.933 331.27C284.564 336.218 288.956 341.41 293.176 346.761C293.261 346.869 293.396 346.931 293.554 347.048C294.816 346.491 295.097 344.899 296.169 344.132C298.616 345.066 301.46 345.418 303.608 344.579C307.41 343.095 311.49 341.527 313.823 337.443C314.603 336.076 315.481 334.76 316.114 333.313C317.124 331.003 318.217 328.767 319.694 326.739C320.639 325.441 321.046 323.961 320.778 322.24C320.346 319.461 322.144 317.299 322.829 314.823C324.139 310.089 327.595 308.019 331.869 307.098C332.862 306.884 333.774 307.034 334.62 307.615C335.547 308.253 336.42 308.108 337.296 307.479C340.858 304.919 344.36 298.554 342.316 293.43C340.639 289.223 344.239 282.715 348.02 280.679C349.814 279.714 351.447 278.6 353.722 278.828C355.84 279.041 357.197 277.397 357.921 275.171C358.488 273.426 358.735 271.743 358.576 269.864C358.307 266.683 361.957 262.85 365.093 262.882C368.617 262.918 371.638 262.02 373.286 258.355C374.187 256.351 374.47 254.2 373.737 252.078C373.26 250.697 373.434 249.501 374.141 248.356C376.691 244.223 379.414 240.274 383.235 237.275C384.57 236.228 385.592 236.516 386.802 237.165C388.061 237.841 387.45 238.86 387.218 239.818C389.687 238.456 390.822 235.764 392.682 233.809C396.017 230.303 400.175 227.996 403.808 224.921C408.42 221.018 413.061 217.18 416.053 211.655C417.309 209.336 418.355 206.87 419.203 204.332C419.554 203.281 419.617 202.253 419.102 201.173C418.392 199.682 418.605 198.089 419.531 196.858C421.041 194.851 421.954 192.469 423.333 190.42C425.127 187.753 427.459 185.263 430.405 184.443C433.841 183.486 435.971 180.918 438.539 178.835C438.863 178.572 439.199 178.274 439.405 177.911C441.513 174.199 445.335 173.238 448.619 171.428C449.73 170.816 450.088 171.357 449.928 172.604C449.614 175.045 450.431 175.807 452.47 174.618C454.974 173.158 457.482 172.005 460.37 171.93C460.774 171.92 461.139 171.639 461.459 171.357C461.78 171.074 462.124 170.739 462.002 170.271C461.875 169.778 461.387 169.736 460.984 169.702C458.768 169.517 456.651 170.197 454.499 170.568C454.365 170.591 454.242 170.673 454.109 170.702C453.305 170.879 452.355 171.811 451.738 170.66C451.175 169.61 452.346 169.097 452.752 168.323C454.21 165.541 455.95 162.931 457.218 160.037Z" fill="#424A37"/>
<path d="M234.563 210.693C234.369 210.821 234.174 210.95 233.979 211.078C233.809 211.31 233.501 211.296 233.314 211.499L233.298 211.508C233.092 211.774 232.695 211.68 232.507 211.98L232.524 211.965C232.263 212.512 231.671 212.523 231.267 212.839L231.277 212.833C231.048 213.073 230.623 212.972 230.475 213.354L230.524 213.307C230.306 213.358 230.177 213.536 230.032 213.693L230.025 213.698C229.814 213.954 229.372 213.843 229.254 214.246L229.308 214.193C229.073 214.215 228.954 214.414 228.802 214.563C226.259 216.625 223.712 218.682 221.174 220.751C208.977 230.69 198.73 242.528 190.478 256.309C190.263 256.669 189.982 256.985 189.732 257.321C189.627 257.494 189.448 257.61 189.388 257.818L189.415 257.777C189.155 257.927 188.983 258.137 189.004 258.474L188.949 258.627C188.793 258.782 188.614 258.922 188.605 259.18L188.655 259.121C188.252 259.25 188.354 259.715 188.152 259.978L188.165 259.952C187.929 260.112 187.761 260.316 187.763 260.634L187.784 260.756L187.683 260.817C187.557 260.979 187.378 261.102 187.353 261.336L187.393 261.284C187.028 261.452 187.114 261.892 186.924 262.164L186.939 262.138C186.631 262.331 186.715 262.756 186.49 262.998L186.489 263.001C186.143 263.433 185.991 263.984 185.709 264.454C185.711 264.778 185.633 265.056 185.326 265.201C184.982 265.383 185.073 265.828 184.854 266.085C184.799 266.217 184.743 266.351 184.687 266.483C184.226 267.063 183.937 267.744 183.661 268.432L183.682 268.582L183.563 268.663C182.877 269.245 182.719 270.12 182.439 270.928L182.469 270.883C182.092 271.062 182.168 271.49 182.023 271.796L182.052 271.752C181.683 271.94 181.754 272.361 181.618 272.673L181.648 272.629C181.269 272.812 181.342 273.235 181.212 273.551L181.241 273.511C180.387 274.24 180.372 275.392 179.971 276.35L179.927 276.51C179.489 277.036 179.415 277.735 179.156 278.345L179.183 278.301C178.463 279.623 177.873 281.003 177.531 282.493L177.523 282.599C176.832 283.61 176.754 284.872 176.294 285.978L176.286 286.085C173.937 291.963 172.65 298.172 171.246 304.344C170.319 308.418 169.597 312.536 169.072 316.684C168.747 319.255 168.674 321.871 168.357 324.438C167.76 329.272 168.361 334.152 167.671 338.966C167.512 340.079 168.001 341.085 168.017 342.186C168.095 347.582 168.573 352.974 169.526 358.251C170.71 364.811 172.125 371.331 173.764 377.799C177.458 392.377 184.087 405.378 192.131 417.672C195.219 422.391 198.553 426.868 202.384 430.96C204.487 433.205 205.882 436.157 208.261 438.195C212.721 442.014 217.051 445.993 221.593 449.714C226.853 454.025 232.374 457.895 238.16 461.295C243.644 464.518 249.256 467.502 255.176 469.817C259.403 471.469 263.704 472.863 267.948 474.444C269.749 475.115 271.644 475.466 273.487 475.947C277.713 477.051 281.997 478.096 286.314 478.58C295.612 479.622 304.974 480.179 314.31 479.549C322.76 478.98 331.083 477.285 339.35 475.251C345.492 473.74 351.29 471.18 357.285 469.236C357.483 469.172 357.621 468.995 357.749 468.823L357.725 468.848C358.688 468.297 359.775 468.017 360.67 467.32C360.805 467.259 360.94 467.197 361.074 467.135C364.189 466.634 366.732 464.664 369.541 463.384C373.44 461.606 376.753 458.682 380.669 456.896C382.402 456.105 384.155 455.68 385.997 455.461C386.952 455.347 387.851 454.99 388.728 454.556C389.283 454.282 389.917 454.005 390.389 454.711C390.741 455.238 390.584 455.797 390.373 456.366C388.991 460.1 386.456 462.473 383.162 464.46C379.041 466.948 374.873 469.198 370.394 470.82C369.479 471.152 368.688 471.74 367.908 472.332C367.584 472.579 367.138 472.824 367.298 473.342C367.442 473.809 367.91 473.879 368.317 473.93C370.675 474.224 372.768 473.42 374.715 472.109C377.016 470.559 379.118 468.67 381.659 467.528C381.973 467.387 382.31 467.226 382.532 466.964C384.148 465.052 385.826 463.954 388.542 464.634C389.993 464.998 391.642 463.569 392.836 462.405C394.852 460.44 397.26 459.278 399.665 458.057C401.067 457.345 402.188 457.534 402.903 459.117C403.15 459.664 403.464 460.346 404.07 460.084C406.309 459.114 407.041 460.823 407.907 462.356C404.983 465.27 401.873 467.934 398.499 470.244C398.212 469.42 397.836 469.234 397.039 469.743C395.084 470.994 393.755 472.869 392.368 474.7L392.414 474.664C392.059 474.818 391.789 475.102 391.486 475.334C391.453 475.482 391.367 475.537 391.228 475.498C390.785 475.822 390.198 475.91 389.875 476.43C389.803 476.672 389.641 476.766 389.412 476.75C388.759 477.225 387.866 477.271 387.376 478.036L387.321 478.134L387.216 478.113C386.915 478.109 386.72 478.289 386.568 478.54L386.593 478.525C386.339 478.734 385.938 478.65 385.756 479.002L385.788 478.982C383.849 479.064 382.158 479.617 381.254 481.668C381.127 481.981 380.883 482.063 380.589 482.048C377.437 481.869 375.162 483.768 372.993 485.791C372.354 486.386 371.533 486.546 370.944 487.15L370.826 487.284L370.654 487.268C366.39 488.841 362.052 490.169 357.805 491.813C352.285 493.949 346.631 495.647 340.811 496.636C339.928 496.786 339.032 496.948 338.225 497.309C333.332 499.5 328.003 498.953 322.93 500.052C320.705 500.535 318.322 500.169 316.215 501.474C315.754 501.76 315.131 501.669 314.594 501.594C311.868 501.211 309.128 501.322 306.399 501.388C295.434 501.652 284.595 500.592 273.789 498.576C265.882 497.1 258.215 494.806 250.758 491.791C242.429 488.423 234.201 484.75 226.493 479.916C226.141 479.696 225.745 479.558 225.354 479.424L225.194 479.432L225.097 479.297C222.263 476.973 219.033 475.295 216.128 473.072C214.443 471.783 212.772 470.428 210.912 469.4C210.617 469.361 210.402 469.212 210.305 468.901C206.735 465.646 203.092 462.483 199.413 459.369C198.273 458.403 197.48 457.121 196.433 456.075C190.197 449.84 184.364 443.192 179.233 435.915C175.838 431.1 172.719 426.052 169.733 420.928C165.842 414.251 162.459 407.283 159.516 400.089C157.938 396.232 156.95 392.136 155.705 388.145C154.419 384.018 153.35 379.826 152.16 375.672C151.5 373.366 151.121 371.006 150.688 368.659C149.902 364.394 149.063 360.089 148.874 355.781C148.737 352.669 148.068 349.64 148.097 346.516C148.152 340.716 147.856 334.92 147.482 329.131C147.453 328.695 147.351 328.232 147.503 327.833C149.576 322.394 148.979 316.511 149.895 310.869C150.644 306.251 151.088 301.563 152.144 296.985C152.324 296.207 152.276 295.383 152.119 294.599C151.864 293.332 152.165 292.324 153.128 291.506C153.861 290.885 154.043 289.96 154.325 289.047C155.928 283.869 156.542 278.386 158.294 273.297C160.491 266.917 163.343 260.808 166.464 254.847C169.891 248.303 173.829 242.12 177.856 235.998C179.572 233.39 181.317 230.804 183.405 228.46C185.649 225.94 187.488 223.013 189.755 220.495C194.334 215.408 199.184 210.644 204.234 206.067C210.66 200.242 217.683 195.395 224.822 190.694C229.234 187.789 233.932 185.47 238.667 183.212C243.852 180.739 249.262 178.92 254.565 176.801C258.258 175.325 262.185 174.52 265.992 173.361C272.66 171.331 279.55 170.701 286.381 169.77C288.84 169.435 291.378 169.071 293.907 169.438C294.955 169.59 295.879 170.01 296.75 170.609C298.353 171.713 298.657 172.65 297.706 174.444C296.318 177.063 295.335 179.835 294.563 182.71C294.241 183.906 293.685 184.996 293.089 186.059C292.641 186.858 291.991 187.397 291.098 187.397C289.563 187.398 288.149 187.981 286.679 188.298C285.341 188.586 284.22 188.978 283.611 190.465C283.274 191.288 282.37 191.554 281.608 191.887C279.279 192.904 276.916 193.75 274.413 194.221C269.5 195.146 264.775 196.853 260.024 198.433C259.782 198.677 259.498 198.799 259.161 198.769C256.839 199.669 254.531 200.611 252.205 201.5L252.054 201.545C251.032 202.121 249.95 202.553 248.888 203.033L248.765 203.171L248.587 203.157C248.038 203.862 247.077 203.566 246.473 204.139C246.298 204.464 246.019 204.567 245.685 204.555C245.428 204.787 245.017 204.688 244.804 205.015L244.686 205.038C244.375 204.996 244.177 205.191 243.992 205.414L243.837 205.457C243.545 205.449 243.352 205.634 243.172 205.843L243.019 205.896C242.724 205.884 242.531 206.069 242.35 206.281L242.196 206.333C241.906 206.317 241.718 206.507 241.531 206.701C241.287 207.045 240.969 207.23 240.556 207.205C240.255 207.194 240.058 207.382 239.881 207.608L239.748 207.649C239.444 207.621 239.25 207.813 239.07 208.033C238.896 208.357 238.622 208.483 238.283 208.478C238.042 208.715 237.619 208.607 237.446 208.973L237.487 208.947C237.188 209.155 236.903 209.388 236.559 209.514C236.447 209.58 236.334 209.644 236.221 209.709C236.069 210.128 235.571 209.882 235.371 210.209L235.369 210.21C235.146 210.455 234.749 210.375 234.563 210.693Z" fill="#3E4D39"/>
<path d="M457.218 160.037C457.283 161.149 456.959 162.036 456.382 163.04C455.447 164.666 453.984 166.058 453.864 168.158C453.84 168.587 453.458 168.685 453.132 168.808C452.663 168.986 452.318 169.332 452.063 169.779C451.912 170.043 451.881 170.334 452.045 170.593C452.244 170.906 452.539 170.804 452.773 170.666C454.869 169.423 457.285 169.694 459.503 169.045C460.48 168.759 461.381 169.213 462.313 169.299C463.178 169.379 463.087 170.258 462.744 170.823C462.092 171.897 461.165 172.701 459.89 172.668C457.556 172.609 455.483 173.233 453.608 174.772C452.992 175.278 452.116 175.503 451.324 175.676C449.616 176.05 448.593 174.749 449.125 172.969C449.258 172.524 449.787 172.226 449.645 171.689C449.501 171.618 449.413 171.549 449.392 171.568C447.67 173.068 445.545 173.633 443.514 174.402C442.966 174.609 442.535 174.909 442.214 175.396C439.903 178.896 436.554 181.222 433.603 183.999C433.282 184.301 432.917 184.48 432.487 184.458C430.963 184.379 429.71 185.105 428.531 185.995C427.155 187.034 426.145 188.564 424.549 189.325C424.279 189.455 424.046 189.851 423.946 190.177C423.34 192.134 421.963 193.634 421.197 195.494C421.036 195.884 420.791 196.254 420.52 196.572C419.131 198.202 418.935 199.596 419.94 201.415C420.247 201.972 420.219 202.483 420.105 203.077C419.73 205.015 418.791 206.718 418.14 208.54C417.194 211.19 415.499 213.368 414.044 215.692C412.357 218.385 410.039 220.41 407.645 222.352C405.335 224.226 403.014 226.09 400.794 228.081C400.001 228.793 399.13 229.286 398.274 229.857C395.261 231.864 392.555 234.249 390.574 237.442C389.698 238.855 388.133 239.518 387.268 240.944C387.128 241.175 386.752 241.192 386.506 241.037C386.163 240.821 386.118 240.449 386.296 240.094C386.613 239.464 387.147 238.953 387.227 238.124C386.922 237.495 386.191 237.595 385.698 237.252C384.9 236.699 384.194 236.695 383.648 237.723C383.131 238.695 382.153 239.22 381.356 239.843C378.983 241.698 377.211 243.993 376.069 246.857C375.839 247.432 375.343 247.697 374.955 248.096C373.789 249.291 373.616 250.635 374.449 252.156C374.852 252.892 375.109 253.575 374.607 254.371C374.419 254.668 374.251 255.032 374.387 255.397C375.135 257.415 373.711 258.684 372.879 260.095C372.078 261.456 370.96 262.515 369.384 262.915C367.845 263.306 366.304 263.555 364.724 263.424C363.564 263.327 362.604 263.486 361.985 264.775C361.56 265.657 360.598 266.078 359.957 266.854C358.893 268.144 358.82 269.514 359.165 270.907C359.434 271.994 359.339 272.861 358.892 273.816C358.592 274.458 358.271 275.182 358.271 275.87C358.271 277.497 357.332 278.105 356.13 278.675C354.739 279.336 353.403 280.013 351.853 279.277C351.607 279.16 351.304 279.139 351.075 279.349C349.379 280.899 347.124 281.559 345.536 283.277C345.392 283.432 345.177 283.539 345.088 283.72C344.144 285.638 342.995 287.489 342.375 289.522C342.037 290.63 342.301 292.219 342.831 293.292C343.777 295.208 343.714 297.254 343.285 299.012C342.345 302.861 340.409 306.195 337.059 308.361C336.122 308.967 335.265 309.003 334.446 308.202C333.438 307.216 332.448 307.483 331.243 307.896C329.637 308.447 328.064 309.004 326.577 309.866C325.763 310.338 325.065 310.878 324.755 311.825C324.418 312.857 323.868 313.774 323.433 314.743C322.649 316.487 322.272 318.419 321.343 320.126C321.101 320.572 321.106 321.316 321.26 321.834C322.116 324.702 320.465 326.676 319.077 328.674C318.503 329.499 318.013 330.31 317.625 331.243C316.328 334.36 314.79 337.328 312.675 339.929C311.513 341.357 309.992 342.151 308.383 342.786C307.669 343.068 306.955 343.324 306.437 343.935C305.265 345.315 303.715 345.677 302.134 345.393C300.397 345.08 298.682 345.336 296.96 345.265C296.039 345.227 296.238 344.657 296.169 344.134C298.042 341.443 299.909 338.747 301.792 336.063C303.028 334.301 304.224 332.502 305.549 330.818C307.716 328.066 309.667 325.133 311.79 322.342C313.641 319.908 315.397 317.346 317.184 314.833C320.15 310.661 323.086 306.457 326.224 302.432C329.997 297.59 333.373 292.407 337.294 287.709C340.904 283.384 344.347 278.9 347.764 274.428C352.233 268.578 356.676 262.702 361.312 257.006C363.654 254.129 366.007 251.229 368.301 248.327C372.424 243.112 376.731 238.073 380.891 232.896C384.844 227.976 389.023 223.276 393.205 218.583C399.459 211.563 405.73 204.556 412.302 197.868C414.952 195.171 417.664 192.548 420.439 189.988C422.28 188.288 423.954 186.345 425.825 184.655C428.491 182.249 431.335 180.049 433.866 177.496C436.164 175.177 438.709 173.211 441.171 171.137C444.562 168.28 448.037 165.524 451.702 163.056C453.459 161.872 455.296 160.87 457.218 160.037Z" fill="#424A37"/>
<path d="M407.909 462.357C407.149 462.299 406.097 462.651 406.581 461.06C406.78 460.407 406.3 460.16 405.714 460.295C405.383 460.372 405.062 460.58 404.734 460.584C404.117 460.592 403.561 461.214 402.956 460.877C402.371 460.55 402.689 459.814 402.505 459.292C402.11 458.169 401.327 457.815 400.229 458.391C397.676 459.731 394.964 460.784 392.97 463.132C392.05 464.214 390.58 464.427 389.438 465.24C388.651 465.799 387.428 465.551 386.498 464.941C385.735 464.441 385.156 464.721 384.767 465.42C383.837 467.087 382.391 467.949 380.737 468.545C380.352 468.683 379.888 468.827 379.652 469.135C378.312 470.874 376.261 471.528 374.637 472.852C372.751 474.389 370.3 474.892 367.839 474.518C367.385 474.449 366.932 474.186 366.539 473.914C366.042 473.57 365.964 473.011 366.475 472.667C367.681 471.853 368.74 470.764 370.123 470.27C372.972 469.254 375.856 468.265 378.457 466.683C380.391 465.506 382.264 464.188 384.199 462.996C385.497 462.198 386.921 461.619 387.884 460.301C388.177 459.901 388.614 459.565 388.575 459.014C388.491 457.816 388.834 456.927 389.869 456.309C390.318 456.04 390.39 455.381 390.112 454.939C389.729 454.327 389.174 454.776 388.881 455.056C387.876 456.018 386.535 456.158 385.423 456.145C382.642 456.115 380.488 457.674 378.199 458.859C375.156 460.435 372.458 462.684 369.374 464.196C367.051 465.334 364.705 466.421 362.355 467.495C361.902 467.702 361.405 467.645 361.075 467.136C364.423 465.344 367.807 463.621 371.111 461.742C376.54 458.654 381.77 455.189 386.708 451.297C400.905 440.106 412.659 426.51 422.015 410.546C427.6 401.017 431.886 390.862 435.277 380.286C437.195 374.305 438.874 368.21 439.594 361.886C439.624 361.625 439.85 361.389 439.985 361.141C440.361 360.54 440.043 359.802 440.324 359.182L440.263 359.069L440.347 358.973C440.706 358.409 440.824 357.808 440.594 357.154C440.533 356.858 440.602 356.592 440.762 356.348C442.933 357.135 445.624 357.106 446.015 360.528C446.153 361.735 447.075 362.718 447.403 363.907C448.211 366.836 448.134 369.577 446.147 372.077C444.456 374.204 444.357 377.041 443.524 379.551C443.36 380.044 443.625 380.591 444.034 380.898C445.813 382.234 445.332 383.978 444.652 385.582C444.096 386.891 443.387 388.152 442.655 389.378C441.961 390.539 441.053 391.273 439.69 391.437C438.208 391.616 437.135 392.568 436.093 393.72C432.245 397.97 430.671 403.378 429.003 408.763C428.574 410.151 428.751 411.038 430.275 411.239C430.916 411.324 431.493 411.595 431.71 412.3C432.078 413.496 432.908 413.483 433.858 413.37C434.875 413.249 434.992 412.451 435.395 411.656C437.062 408.365 438.588 404.946 440.854 402.064C443.271 398.989 445.493 395.871 447.001 392.125C447.798 390.147 449.61 388.711 450.262 386.469C450.588 385.346 451.688 385.504 452.26 386.592C453.438 388.838 453.088 390.84 451.026 392.752C450.428 393.307 450.083 393.676 450.488 394.529C450.838 395.267 450.91 396.194 450.451 396.839C449.202 398.592 448.636 400.543 448.545 402.698C448.532 402.983 448.444 403.315 448.259 403.505C445.425 406.43 445.197 410.642 443.572 414.16C443.451 414.421 443.355 414.711 443.161 414.911C440.176 417.966 438.996 422.214 436.768 425.757C435.422 427.896 434.161 430.161 432.265 431.877C431.256 432.791 430.745 434.101 430.058 435.268C429.66 435.946 429.307 436.682 428.73 437.196C427.507 438.286 426.549 439.414 427.468 441.25C427.544 441.403 427.356 441.652 427.224 441.823C426.881 442.572 426.394 443.19 425.736 443.649C425.425 443.724 425.246 443.921 425.229 444.267C425.07 444.758 424.769 445.116 424.332 445.346C424.202 445.495 424.076 445.647 423.953 445.803C420.843 449.927 417.414 453.722 413.583 457.1C413.45 457.4 412.964 457.277 412.937 457.705L412.983 457.647C412.68 457.653 412.559 457.867 412.486 458.135C412.466 458.362 412.346 458.47 412.135 458.47C411.906 458.549 411.75 458.714 411.641 458.936C410.527 460.237 409.297 461.395 407.909 462.357Z" fill="#3E4D39"/>
<path d="M427.223 441.822C427.19 441.535 427.184 441.242 427.119 440.964C426.99 440.418 425.894 440.653 426.202 439.789C426.441 439.119 426.674 438.238 427.175 437.918C429.069 436.706 429.637 434.495 430.871 432.799C430.912 432.742 430.946 432.672 430.958 432.603C431.216 431.167 432.888 431.245 433.369 430.079C433.834 428.95 434.327 427.926 435.254 427.06C436.705 425.704 437.345 423.693 438.185 421.904C439.345 419.434 440.477 416.991 442.389 415.059C442.635 414.811 442.992 414.543 443.041 414.239C443.389 412.051 444.47 410.197 445.345 408.246C445.505 407.888 445.835 407.345 445.34 407.09C443.858 406.326 444.818 406.033 445.532 405.638C447.231 404.696 448.285 403.34 448.193 401.165C448.136 399.826 448.498 398.626 449.383 397.581C450.585 396.161 450.582 395.648 449.462 394.067C448.905 393.282 449.173 392.722 449.901 392.653C451.787 392.476 451.573 390.398 452.623 389.497C452.297 388.424 452.025 387.327 451.615 386.292C451.47 385.926 450.988 386.067 450.751 386.373C450.395 386.831 450.311 387.407 450.191 387.983C449.939 389.192 449.62 390.371 448.385 390.959C447.813 391.231 447.521 391.81 447.308 392.472C446.801 394.049 445.884 395.442 445.427 397.053C445.202 397.849 444.57 398.35 444.041 398.914C441.96 401.135 440.191 403.637 438.77 406.353C438.017 407.795 437.523 409.328 436.211 410.383C435.617 410.86 435.877 411.744 435.854 412.456C435.822 413.437 435.371 413.909 434.451 413.932C433.907 413.946 433.331 413.905 432.828 414.078C431.805 414.43 431.374 413.977 431.354 412.979C431.334 412.019 430.881 411.803 430.063 411.733C428.17 411.572 427.74 410.759 428.368 408.9C429.173 406.519 429.991 404.139 430.7 401.725C431.365 399.461 432.521 397.516 433.93 395.735C434.633 394.847 435.309 393.969 435.918 392.994C436.68 391.775 437.988 390.839 439.308 390.904C441.055 390.99 441.97 389.91 442.446 388.676C443.105 386.963 444.526 385.681 444.67 383.649C444.742 382.639 444.761 382.069 443.882 381.526C442.78 380.846 442.488 380.059 443.006 378.827C443.68 377.223 444.019 375.526 444.516 373.874C444.828 372.84 445.099 371.829 446.165 371.278C447.029 370.832 446.806 369.778 447.049 368.974C447.801 366.491 447.241 364.266 446.042 362.139C445.65 361.444 445.385 360.749 445.274 359.926C445.037 358.164 444.524 357.71 442.841 357.904C441.97 358.005 441.76 357.555 441.562 356.895C441.437 356.479 441.11 356.395 440.761 356.347C441.056 352.831 441.369 349.316 441.641 345.798C442.014 340.975 442.062 336.14 442.071 331.304C442.072 330.715 441.616 329.725 442.835 329.757C443.455 332.438 443.455 332.433 446.185 332.673C449.471 332.961 452.41 333.741 454.524 336.933C455.937 339.066 458.077 340.422 460.79 339.117C461.497 338.778 462.067 339.255 462.84 339.585C462.629 336.195 463.34 332.87 462.121 329.669C463.81 329.583 463.826 329.582 463.846 331.25C463.979 342.248 463.231 353.162 461.45 364.014C459.314 377.035 455.736 389.57 450.802 401.685C445.42 414.902 438.431 427.092 429.983 438.344C429.093 439.528 428.375 440.871 427.223 441.822Z" fill="#3E4D39"/>
<path d="M417.744 435.852C419.454 433.47 420.486 430.909 421.752 428.488C422.026 427.963 422.19 427.542 422.853 427.417C424.105 427.181 425.143 426.563 425.499 425.096C425.586 424.736 425.868 424.454 426.255 424.504C426.653 424.556 426.693 424.935 426.818 425.284C427.537 427.291 426.986 428.948 425.559 430.298C423.95 431.82 422.902 433.74 421.9 435.711C421.161 437.165 421.159 437.156 419.753 436.585C419.189 436.357 418.611 436.167 417.744 435.852Z" fill="#3E4D39"/>
<path d="M429.746 413.175C430.24 413.918 430.098 414.854 430.881 415.277C431.47 415.594 431.366 416.261 431.289 416.825C431.144 417.885 430.392 418.865 429.861 418.626C428.906 418.194 429.279 417.314 429.49 416.595C429.682 415.941 429.7 415.346 429.459 414.709C429.286 414.252 429.138 413.754 429.746 413.175Z" fill="#3E4D39"/>
<path d="M433.155 418.448C433.405 420.284 432.944 421.601 431.92 422.07C431.533 422.247 431.113 422.301 430.772 421.97C430.476 421.683 430.655 421.323 430.69 420.966C430.85 419.367 432.108 419.086 433.155 418.448Z" fill="#3E4D39"/>
<path d="M432.745 424.559C433.126 424.574 433.333 424.74 433.307 425.081C433.274 425.515 432.983 425.677 432.603 425.68C432.331 425.682 431.99 425.685 431.969 425.323C431.934 424.735 432.507 424.793 432.745 424.559Z" fill="#3E4D39"/>
</g>
<defs>
<clipPath id="clip0_174_156">
<rect width="631" height="670" rx="24" fill="white"/>
</clipPath>
</defs>
</svg>
